<svg width="1440" height="861" viewBox="0 0 1440 861" fill="none" xmlns="http://www.w3.org/2000/svg">
<path fill-rule="evenodd" clip-rule="evenodd" d="M0 0H1440V330.761C1280.39 346.909 1368.37 538.091 1018.04 553.739C667.718 569.387 760.557 898.939 369.557 764.005C223.54 713.615 100.353 745.932 0 860.959V0Z" fill="#9CBDFD"/>
<path d="M0 763.54C386.357 937.2 499.775 690.877 758.037 591.15C1016.3 491.421 1331.36 548.003 1440 379.421V0H0V763.54Z" fill="url(#paint0_linear)"/>
<path d="M0 0H1197.36C878.351 0 986.062 393.793 615.013 362.589C243.963 331.384 336.705 536.264 183.813 560.951C103.553 573.911 42.283 559.801 0 518.624V0Z" fill="url(#paint1_linear)"/>
<defs>
<linearGradient id="paint0_linear" x1="1404.12" y1="757.529" x2="656.419" y2="-248.287" gradientUnits="userSpaceOnUse">
<stop stop-color="#117AF4"/>
<stop offset="1" stop-color="#0326B6"/>
</linearGradient>
<linearGradient id="paint1_linear" x1="802.564" y1="389.622" x2="282.839" y2="-25.8272" gradientUnits="userSpaceOnUse">
<stop stop-color="white" stop-opacity="0.103"/>
<stop offset="1" stop-color="white" stop-opacity="0"/>
</linearGradient>
</defs>
</svg>
